<svg id="Gruppe_16" data-name="Gruppe 16" xmlns="http://www.w3.org/2000/svg" xmlns:xlink="http://www.w3.org/1999/xlink" width="401" height="91.423" viewBox="0 0 401 91.423">
  <defs>
    <clipPath id="clip-path">
      <rect id="Rechteck_22" data-name="Rechteck 22" width="401" height="91.423" transform="translate(0 0)" fill="none"/>
    </clipPath>
  </defs>
  <g id="Gruppe_15" data-name="Gruppe 15" fill="var" clip-path="url(#clip-path)">
    <path id="Pfad_179" data-name="Pfad 179" d="M90.52,5.883v27.76c0,3.75,1.65,4.7,4.4,5v.87H82.1v-.85c2.75-.3,4.4-1.25,4.4-5V5.883c0-3.4-1.65-4.25-4.4-4.55V.513H94.9v.85c-2.73.27-4.38,1.15-4.38,4.52m28.58,33.63h-9.21c-8.3-8.15-13.6-15-13.6-21.26,0-4.75,4.15-7.55,7.2-10.8,2-2.15,3.86-4.1,4.76-6.9h8.65V1.3c-2.9.65-7.05,2.85-13.26,8.15-3.8,3.25-4.75,4.8-4.75,7,0,6.61,13.41,21.56,20.21,22.31Z"/>
    <path id="Pfad_180" data-name="Pfad 180" d="M156.33,38.643v.87h-7.76l-1-1.35v-5.17a14.841,14.841,0,0,1-12.46,7c-7.6,0-12.25-4-12.3-11.1,0-7.85,6.25-12.56,6.25-19.11,0-5.8-3-8.25-8.4-8.45V.513h8.35a10.134,10.134,0,0,1,1.75,5.3c0,5.8-3.1,13.7-3.1,21.11,0,5.6.35,11.15,9,11.15,5,0,8.8-4.15,10.86-7.9l-.11-24.26c0-3.4-1.64-4.25-4.4-4.55V.513h12.81v.85c-2.75.3-4.4,1.15-4.4,4.55v28.08c.01,3.4,1.68,4.35,4.91,4.65"/>
    <path id="Pfad_181" data-name="Pfad 181" d="M199.73,39.513h-8.36a29,29,0,0,1-7.45-18.4c0-7.61,6.7-9.66,6.7-14.31,0-3.25-2.4-5.1-7.75-5.1S174.72,3,174.72,6v27.64c0,3.75,1.65,4.7,4.4,5v.87h-12.8v-.85c2.75-.3,4.4-1.25,4.4-5V5.883c0-3.4-1.65-4.25-4.4-4.55V.513c8.6,0,11.2-.2,16.75-.2,6,0,12.15.8,12.15,5,0,5.5-9.8,8.25-9.8,14.76,0,6.25,8.1,17.3,14.31,18.65Z"/>
    <path id="Pfad_182" data-name="Pfad 182" d="M202.32,20.513A20.24,20.24,0,0,1,222.285,0c.212,0,.423,0,.635,0,9.5,0,18.5,8.2,18.5,18.5,0,12.31-8.85,21.51-20.5,21.51-9.6-.02-18.6-8.77-18.6-19.5m34.5,0c0-9-4.9-18.76-15.9-18.76-9.55,0-13.75,8.2-13.75,16.75s4.15,19.91,15.75,19.91c9.65-.02,13.9-10.97,13.9-17.9"/>
    <path id="Pfad_183" data-name="Pfad 183" d="M281.32,39.513h-8.35a29,29,0,0,1-7.45-18.4c0-7.61,6.7-9.66,6.7-14.31,0-3.25-2.4-5.1-7.75-5.1-5.2,0-8.15,1.3-8.15,4.3v27.64c0,3.75,1.65,4.7,4.4,5v.87h-12.8v-.85c2.75-.3,4.4-1.25,4.4-5V5.883c0-3.4-1.65-4.25-4.4-4.55V.513c8.6,0,11.2-.2,16.75-.2,6,0,12.15.8,12.15,5,0,5.5-9.8,8.25-9.8,14.76,0,6.25,8.1,17.3,14.3,18.65Z"/>
    <path id="Pfad_184" data-name="Pfad 184" d="M317.22,9.883h-.7c-2.7-7-6-7.9-9-7.9-4.05,0-5.7.8-5.7,4.5v27.16c0,3.75,1.65,4.7,4.4,5v.87h-12.8v-.85c2.75-.3,4.4-1.25,4.4-5V6.513c0-3.7-1.65-4.5-5.7-4.5-3,0-6.3.9-9,7.9h-.7l1.15-9.4H316.1Z"/>
    <path id="Pfad_185" data-name="Pfad 185" d="M8.4,57.253v27.76c0,3.75,1.65,4.7,4.4,5v.87H0v-.85c2.75-.3,4.4-1.25,4.4-5V57.253c0-3.4-1.65-4.25-4.4-4.55v-.82H12.8v.85c-2.75.27-4.4,1.15-4.4,4.52M37,90.883H27.8c-8.3-8.15-13.6-15-13.6-21.26,0-4.75,4.15-7.55,7.2-10.8,2-2.15,3.85-4.1,4.75-6.9l8.65-.04v.75c-2.9.65-7,2.85-13.25,8.15-3.8,3.25-4.75,4.8-4.75,6.95,0,6.61,13.4,21.56,20.2,22.31Z"/>
    <path id="Pfad_186" data-name="Pfad 186" d="M74.2,90.013v.87H66.45l-1-1.35v-5.17a14.821,14.821,0,0,1-12.45,7c-7.6,0-12.25-4-12.3-11.1,0-7.85,6.25-12.56,6.25-19.11,0-5.8-3-8.25-8.4-8.45v-.82H46.9a10.135,10.135,0,0,1,1.75,5.3c0,5.8-3.1,13.7-3.1,21.11,0,5.6.35,11.15,9,11.15,5,0,8.8-4.15,10.85-7.9l-.1-24.26c0-3.4-1.65-4.25-4.4-4.55v-.85H73.7v.85c-2.75.3-4.4,1.15-4.4,4.55v28.08c0,3.4,1.7,4.35,4.9,4.65"/>
    <path id="Pfad_187" data-name="Pfad 187" d="M117.6,90.883h-8.35a29,29,0,0,1-7.45-18.4c0-7.61,6.7-9.66,6.7-14.31,0-3.25-2.4-5.1-7.75-5.1s-8.15,1.3-8.15,4.3v27.64c0,3.75,1.65,4.7,4.4,5v.87H84.2v-.85c2.75-.3,4.4-1.25,4.4-5V57.253c0-3.4-1.65-4.25-4.4-4.55v-.82c8.6,0,11.2-.2,16.75-.2,6,0,12.15.8,12.15,4.95,0,5.5-9.8,8.25-9.8,14.76,0,6.25,8.1,17.3,14.3,18.65Z"/>
    <path id="Pfad_188" data-name="Pfad 188" d="M161.7,90.063v.8H148.2v-.8c3.25-.3,4.3-1.25,2.7-5.15-2.6-5.5-6.05-9.8-11.15-9.8-8.05,0-6.35,16.3-12.9,16.3a4.37,4.37,0,0,1-4.647-4.074,4.2,4.2,0,0,1,0-.526c0-3.45,2-8.3,4.3-13.15,3.5-7.31,7.15-13,7.15-17.36,0-3.35-2.3-3.3-4.9-3.6v-.82H145.9v.85c-2.25.3-3.35,1.15-1.65,5.25l11.9,28.46c1.15,2.72,3.4,3.32,5.55,3.62m-13.8-12.55L141,60.353c-1.65-4.1-1.95-4.85-3.4-4.85s-1.45.15-2.1,1.55c-7.15,15.51-9,21.76-9,26.31,0,2.5.6,3,1.65,3,3,0,3.2-12.75,11.7-12.75,2.95,0,5.75,1.7,8.05,3.9"/>
    <path id="Pfad_189" data-name="Pfad 189" d="M194.5,61.253h-.7c-2.7-7-6-7.9-9-7.9-4.05,0-5.7.8-5.7,4.5v27.16c0,3.75,1.65,4.7,4.4,5v.87H170.7v-.85c2.75-.3,4.4-1.25,4.4-5V57.883c0-3.7-1.65-4.5-5.7-4.5-3,0-6.3.9-9,7.9h-.7l1.15-9.4h32.5Z"/>
    <path id="Pfad_190" data-name="Pfad 190" d="M197,71.883a20.24,20.24,0,0,1,19.965-20.511c.212,0,.423,0,.635,0,9.5,0,18.5,8.2,18.5,18.5,0,12.31-8.85,21.51-20.5,21.51-9.6-.02-18.6-8.77-18.6-19.5m34.5,0c0-9-4.9-18.76-15.9-18.76-9.55,0-13.75,8.2-13.75,16.75s4.15,19.91,15.75,19.91c9.65-.02,13.9-10.97,13.9-17.9"/>
    <path id="Pfad_191" data-name="Pfad 191" d="M276,90.883h-8.35a29,29,0,0,1-7.45-18.4c0-7.61,6.7-9.66,6.7-14.31,0-3.25-2.4-5.1-7.75-5.1-5.2,0-8.15,1.3-8.15,4.3v27.64c0,3.75,1.65,4.7,4.4,5v.87H242.6v-.85c2.75-.3,4.4-1.25,4.4-5V57.253c0-3.4-1.65-4.25-4.4-4.55v-.82c8.6,0,11.2-.2,16.75-.2,6,0,12.15.8,12.15,4.95,0,5.5-9.8,8.25-9.8,14.76,0,6.25,8.1,17.3,14.3,18.65Z"/>
    <path id="Pfad_192" data-name="Pfad 192" d="M289.5,57.253v27.76c0,3.75,1.65,4.7,4.4,5v.87H281.1v-.85c2.75-.3,4.4-1.25,4.4-5V57.253c0-3.4-1.65-4.25-4.4-4.55v-.82h12.8v.85c-2.75.27-4.4,1.15-4.4,4.52"/>
    <path id="Pfad_193" data-name="Pfad 193" d="M338.1,90.013v.87h-7.75l-1.05-1.35v-5.17a14.821,14.821,0,0,1-12.45,7c-7.6,0-12.25-4-12.3-11.1,0-7.85,6.25-12.56,6.25-19.11,0-5.8-3.05-8.25-8.4-8.45v-.82h8.35a10.135,10.135,0,0,1,1.75,5.3c0,5.8-3.1,13.7-3.1,21.11,0,5.6.35,11.15,9.05,11.15,5,0,8.8-4.15,10.85-7.9l-.1-24.26c0-3.4-1.65-4.25-4.4-4.55v-.85h12.8v.85c-2.75.3-4.4,1.15-4.4,4.55v28.08c0,3.4,1.65,4.35,4.9,4.65"/>
    <path id="Pfad_194" data-name="Pfad 194" d="M395.15,90.013v.87h-14.3v-.85c12-1,15.15-6.7,15.15-21.66,0-7.27-2-15.49-10-15.49-6,0-11.7,6-11.9,19.58v12.7c0,3.6,1.65,4.55,4.4,4.85v.87H365.7v-.85c2.75-.3,4.4-1.25,4.4-4.85V72.463c-.1-13.58-5.85-19.58-11.8-19.58-8.05,0-10.05,8.2-10.05,15.45,0,15,3.1,20.66,15.15,21.66v.89H348.6v-.85c4.25,0,5.1-.85,4.15-1.6-4.85-3.8-9.5-10-9.5-18.46,0-10.75,6-18.6,16.05-18.6,5.5,0,10.7,2.45,12.85,11.1,2.1-8.65,7.3-11.1,12.8-11.1C395,51.353,401,59.2,401,69.953c0,8.46-4.65,14.66-9.5,18.46-.95.75.8,1.6,3.65,1.6"/>
  </g>
</svg>
