<svg viewBox="0 0 172.626 199.23" xmlns="http://www.w3.org/2000/svg"><path d="m0 0h172.626v199.23h-172.626z" fill="none"/><path d="m120.886 19.239h-68.777l-48.637 48.636v68.778l48.637 48.637h68.777l48.637-48.637v-68.778z" fill="#009fe3" stroke="#1d1d1b" stroke-miterlimit="10" stroke-width="2"/><g fill="#1d1d1b"><path d="m42.724 121.297-12.1 12.1 3.414 3.414c4.993-4.9 13.012-4.825 17.913.168 4.835 4.927 4.835 12.818 0 17.745l3.414 3.414 12.1-12.1-24.74-24.74z"/><path d="m51.608 138.709c.792.961 1.415 2.048 1.845 3.216l-16.094 28.615-8.844-8.792 23.093-23.04z"/><path d="m50.053 137.153c-.961-.787-2.049-1.407-3.216-1.832l-28.615 16.094 8.792 8.778 23.04-23.04z"/><path d="m42.092 84.773h-17.135v4.824c6.996-.003 12.669 5.665 12.673 12.661.003 6.996-5.665 12.669-12.661 12.673h-.012v4.837h17.135z"/><path d="m36.055 103.358c-.109 1.236-.43 2.445-.949 3.572l-31.634 8.857v-12.429z"/><path d="m36.055 101.17c-.11-1.236-.431-2.444-.949-3.572l-31.634-8.857v12.429z"/><path d="m67.464 58.491-12.1-12.1-3.414 3.414c4.9 4.993 4.825 13.012-.167 17.913-4.927 4.836-12.818 4.836-17.745 0l-3.414 3.414 12.1 12.1 24.74-24.74z"/><path d="m50.053 67.375c-.961.792-2.048 1.415-3.216 1.845l-28.615-16.094 8.792-8.844 23.04 23.093z"/><path d="m51.608 65.819c.792-.961 1.415-2.048 1.845-3.216l-16.094-28.615-8.844 8.792 23.093 23.04z"/><path d="m104.002 57.858v-17.135h-4.837c0 6.996-5.671 12.667-12.667 12.667s-12.667-5.671-12.667-12.667h-4.824v17.135z"/><path d="m85.403 51.821c-1.236-.11-2.444-.431-3.572-.949l-8.857-31.634h12.429z"/><path d="m87.591 51.821c1.24-.11 2.453-.431 3.585-.949l8.844-31.634h-12.429z"/><path d="m130.271 83.231 12.1-12.1-3.414-3.414c-4.993 4.9-13.012 4.826-17.913-.167-4.836-4.927-4.836-12.819 0-17.746l-3.414-3.414-12.1 12.1 24.74 24.74z"/><path d="m121.387 65.819c-.787-.961-1.407-2.049-1.832-3.216l16.094-28.615 8.778 8.792-23.04 23.04z"/><path d="m122.942 67.375c.961.792 2.048 1.415 3.216 1.845l28.615-16.094-8.792-8.844-23.04 23.093z"/><path d="m130.903 119.768h17.135v-4.837c-6.996 0-12.667-5.671-12.667-12.667s5.671-12.667 12.667-12.667v-4.824h-17.135z"/><path d="m136.94 101.17c.119-1.238.448-2.446.975-3.572l31.634-8.857v12.429z"/><path d="m136.94 103.358c.119 1.242.448 2.454.975 3.585l31.634 8.844v-12.429z"/><path d="m105.53 146.037 12.1 12.1 3.414-3.414c-4.9-4.992-4.826-13.012.167-17.913 4.927-4.836 12.819-4.836 17.746 0l3.414-3.414-12.1-12.1-24.74 24.74z"/><path d="m122.942 137.153c.961-.787 2.049-1.407 3.216-1.832l28.615 16.094-8.792 8.778-23.04-23.04z"/><path d="m121.387 138.709c-.787.961-1.407 2.049-1.832 3.216l16.094 28.615 8.778-8.792-23.04-23.04z"/><path d="m69.007 146.67v17.135h4.824c-.003-6.996 5.665-12.669 12.661-12.673 6.996-.003 12.669 5.665 12.673 12.661v.012h4.837v-17.135z"/><path d="m87.591 152.707c1.238.117 2.446.447 3.572.975l8.857 31.634h-12.429z"/><path d="m85.403 152.707c-1.238.119-2.446.448-3.572.975l-8.857 31.634h12.429z"/><path d="m56.195 101.842-4.152-17.886h5.272l2.201 13.26 2.043-13.26h5.088l-4.165 17.886z"/><path d="m68.479 101.842v-17.886h4.851v17.886z"/><path d="m76.533 101.842v-17.886h6.234c1.515-.089 3.016.338 4.257 1.213 1.028.809 1.599 2.068 1.529 3.374.002 1.641-.957 3.131-2.452 3.809.871.357 1.627.945 2.188 1.7.513.723.781 1.592.764 2.478.093 1.51-.533 2.976-1.687 3.954-1.372 1.001-3.05 1.491-4.745 1.384l-6.09-.026zm5.707-10.993c.444.026.881-.115 1.226-.395.569-.658.569-1.635 0-2.293-.324-.292-.751-.444-1.186-.422h-1.318v3.111h1.279zm.132 7.21c.548.04 1.089-.14 1.503-.501.71-.791.71-1.99 0-2.781-.442-.32-.986-.465-1.529-.409h-1.318v3.691z"/><path d="m99.481 101.842-2.228-6.01h-1.226v6.01h-4.6v-17.886h6.208c1.703-.117 3.385.431 4.692 1.529 1.146 1.121 1.752 2.683 1.661 4.284.008.916-.205 1.82-.619 2.636-.426.811-1.035 1.51-1.779 2.043l3.032 7.355-5.141.04zm-2.122-9.886c.55.035 1.09-.161 1.489-.54.674-.903.674-2.142 0-3.045-.386-.375-.913-.566-1.45-.527h-1.318v4.112z"/><path d="m116.049 101.842-.633-3.256h-4.152l-.659 3.256h-4.758l4.613-17.886h6.09l4.402 17.886zm-2.636-13.998-1.318 6.907h2.636z"/><path d="m58.937 120.295-.567-2.913h-3.717l-.58 2.913h-4.257l4.112-16.001h5.457l3.954 16.001zm-2.399-12.522-1.213 6.182h2.399z"/><path d="m64.986 120.295v-16.001h4.389v12.06h5.193l-.356 3.954-9.227-.013z"/><path d="m76.296 120.295v-16.001h5.101c1.55-.089 3.072.442 4.231 1.476 1.04 1.046 1.595 2.48 1.529 3.954.047 1.02-.176 2.033-.646 2.939-.456.832-1.149 1.511-1.99 1.951-.938.491-1.986.736-3.045.712h-.923v4.969zm5.101-8.647c1.015.086 1.908-.667 1.995-1.683.086-1.015-.667-1.908-1.683-1.995-.104-.009-.208-.009-.312 0h-.896v3.677h.896z"/><path d="m88.989 120.295v-16.001h4.402v16.001z"/><path d="m104.12 120.295-3.862-8.04v8.04h-4.033v-16.001h3.954l3.849 8.053v-8.053h4.033v16.001z"/><path d="m118.79 120.295-.554-2.913h-3.73l-.58 2.913h-4.257l4.126-16.001h5.444l3.954 16.001h-4.402zm-2.399-12.522-1.213 6.182h2.399z"/></g></svg>