<svg xmlns="http://www.w3.org/2000/svg" viewBox="0 0 207.81 267.66"><defs><style>.cls-1{fill:#81c188;}.cls-2{fill:#1d1d1b;}</style></defs><g id="schoene_Freiheit" data-name="schoene Freiheit"><path class="cls-1" d="M103.88.77A96.63,96.63,0,0,0,78.65,3.59,90.58,90.58,0,0,0,55.16,13c-13.82,8.06-21.56,17.92-27,25A120.72,120.72,0,0,0,16.39,56.86C8.32,72.8,5.7,86.34,3.75,97.42a200,200,0,0,0-3,36.48,199.27,199.27,0,0,0,3,36.41c2,11.07,4.57,24.54,12.64,40.55a120.72,120.72,0,0,0,11.75,18.85c5.46,7.08,13.2,16.92,27,25a91.82,91.82,0,0,0,23.52,9.42,96.35,96.35,0,0,0,25.2,2.75,96.16,96.16,0,0,0,25.23-2.82,91.59,91.59,0,0,0,23.54-9.42c13.8-8.08,21.56-17.92,27-25a119.17,119.17,0,0,0,11.77-18.85c8.07-15.94,10.62-29.48,12.63-40.55a200.17,200.17,0,0,0,3-36.41,200.09,200.09,0,0,0-3-36.41c-2-11.08-4.56-24.55-12.63-40.56A120.09,120.09,0,0,0,179.65,38c-5.46-7.07-13.2-16.93-27-25a90.71,90.71,0,0,0-23.51-9.43A96.38,96.38,0,0,0,103.88.77"/><path class="cls-2" d="M101.63,267.66a97.15,97.15,0,0,1-23.13-2.8,92.08,92.08,0,0,1-23.71-9.5C40.55,247,32.73,236.89,27.55,230.17a122,122,0,0,1-11.83-19C7.4,194.71,4.86,180.68,3,170.44a200.8,200.8,0,0,1-3-36.55,201.34,201.34,0,0,1,3-36.6C5.15,85.14,7.89,72,15.72,56.52a121.44,121.44,0,0,1,11.83-19c5.19-6.73,13-16.9,27.23-25.19a91,91,0,0,1,23.7-9.5A96.57,96.57,0,0,1,103.88,0a96.87,96.87,0,0,1,25.44,2.85,91,91,0,0,1,23.7,9.5c14.2,8.29,22,18.46,27.22,25.19a121.56,121.56,0,0,1,11.85,19C200.38,73,202.93,87,204.78,97.28a200.93,200.93,0,0,1,3,36.56,200.75,200.75,0,0,1-3,36.53c-1.86,10.31-4.42,24.42-12.69,40.76a121.87,121.87,0,0,1-11.84,19c-5.16,6.7-12.95,16.83-27.22,25.19a92.57,92.57,0,0,1-23.74,9.5,97.18,97.18,0,0,1-25.42,2.84ZM101.88,1.5a95.68,95.68,0,0,0-23,2.82,89.67,89.67,0,0,0-23.31,9.35c-14,8.14-21.68,18.17-26.79,24.8A120,120,0,0,0,17.06,57.2C9.32,72.47,6.61,85.51,4.49,97.55a199.31,199.31,0,0,0-3,36.34,198.77,198.77,0,0,0,3,36.29c1.83,10.14,4.35,24,12.57,40.35a120.42,120.42,0,0,0,11.68,18.73c5.1,6.62,12.82,16.63,26.8,24.8a90.77,90.77,0,0,0,23.32,9.34,95.33,95.33,0,0,0,25,2.73,95.15,95.15,0,0,0,25.06-2.8A91.11,91.11,0,0,0,152.28,254c14-8.2,21.69-18.19,26.77-24.81a120,120,0,0,0,11.7-18.72c8.18-16.15,10.71-30.14,12.56-40.36a200.35,200.35,0,0,0,3-36.27,199.49,199.49,0,0,0-3-36.28C201.47,87.38,199,73.46,190.75,57.2a119.61,119.61,0,0,0-11.7-18.73c-5.11-6.63-12.84-16.66-26.78-24.8A89.88,89.88,0,0,0,129,4.32a95.71,95.71,0,0,0-25.06-2.8h0Z"/><polygon class="cls-2" points="109.19 238.26 107 181.34 129.19 181.34 144.44 225.34 143.02 225.84 128.13 182.84 108.56 182.84 110.69 238.2 109.19 238.26"/><polygon class="cls-2" points="98.63 238.26 97.13 238.2 99.27 182.84 79.69 182.84 64.81 225.84 63.4 225.35 78.63 181.34 100.83 181.34 98.63 238.26"/><polygon class="cls-2" points="145.88 182.84 134.33 182.84 134.33 176.81 73.49 176.81 73.49 182.84 61.94 182.84 61.94 176.81 34.1 176.81 34.1 175.31 63.44 175.31 63.44 181.34 71.99 181.34 71.99 175.31 135.83 175.31 135.83 181.34 144.38 181.34 144.38 175.31 173.72 175.31 173.72 176.81 145.88 176.81 145.88 182.84"/><polygon class="cls-2" points="101.3 168.77 82.97 168.77 95.16 133.58 96.57 134.07 85.08 167.27 99.86 167.27 101.16 133.8 102.66 133.86 101.3 168.77"/><polygon class="cls-2" points="124.85 168.77 106.52 168.77 105.18 133.86 106.68 133.8 107.96 167.27 122.74 167.27 111.25 134.07 112.66 133.58 124.85 168.77"/><rect class="cls-2" x="33.18" y="171.29" width="141.47" height="1.5"/><rect class="cls-2" x="29.23" y="133.15" width="149.37" height="1.5"/><path class="cls-2" d="M101.14,107.65a31.93,31.93,0,0,0-1-5.88c-2.6-9.7-7.42-13.49-12.53-17.5s-10.33-8.11-13-18.3-.25-16.38,2.15-22.37A39.13,39.13,0,0,0,79.78,33l1.49.16a40.92,40.92,0,0,1-3.2,11c-2.42,6-4.71,11.73-2.1,21.44s7.42,13.49,12.53,17.5,10.32,8.1,13,18.29a33.88,33.88,0,0,1,1.09,6.15Z"/><path class="cls-2" d="M92,109.61a32.86,32.86,0,0,0-2.5-5.34c-5-8.74-10.69-11.16-16.66-13.72S60.76,85.38,55.5,76.25,51,60.5,51.77,54.1l0-.44,1.49.18-.05.44c-.77,6.44-1.5,12.53,3.54,21.21S67.44,86.61,73.41,89.17s12.08,5.18,17.36,14.35a34.07,34.07,0,0,1,2.62,5.57Z"/><path class="cls-2" d="M112,108.42l-1.48-.27a32.24,32.24,0,0,0,.52-6c0-10.06-3.68-15-7.58-20.16s-7.88-10.5-7.88-21,4-15.88,7.88-21c2.45-3.26,4.76-6.35,6.2-10.72l1.43.47c-1.52,4.61-4,7.94-6.43,11.16C100.72,46,97,50.92,97,61s3.68,15,7.58,20.15,7.88,10.5,7.88,21.06A34.45,34.45,0,0,1,112,108.42Z"/><path class="cls-2" d="M83.63,113.87a33.91,33.91,0,0,0-3.8-4.56c-7.11-7.11-13.18-8-19.61-8.89s-13-1.86-20.46-9.32a33.49,33.49,0,0,1-4.48-5.45l1.25-.82A32,32,0,0,0,40.82,90c7.11,7.11,13.18,8,19.61,8.89s13,1.86,20.46,9.32a34.09,34.09,0,0,1,4,4.76Z"/><path class="cls-2" d="M30.7,131.43c-.48,0-1,0-1.48,0l.08-1.5c6,.32,10.26-1.4,14.78-3.23,6-2.4,12.17-4.89,22.34-2.2a34.92,34.92,0,0,1,5.8,2.1l-.63,1.36a33.14,33.14,0,0,0-5.55-2c-9.69-2.56-15.38-.28-21.4,2.15C40.52,129.71,36.27,131.43,30.7,131.43Z"/><path class="cls-2" d="M76.68,120.11a32.16,32.16,0,0,0-4.85-3.39c-8.7-5-14.79-4.29-21.24-3.51-5.94.72-12.09,1.46-20.23-2.65l.67-1.34c7.74,3.91,13.4,3.22,19.38,2.5,6.41-.77,13-1.57,22.17,3.7A33.6,33.6,0,0,1,77.65,119Z"/><path class="cls-2" d="M120.72,111.69l-1.36-.64a32.8,32.8,0,0,0,2.07-5.66c2.61-9.72.32-15.42-2.09-21.45s-4.88-12.17-2.18-22.35,8-14.35,13.09-18.35a46.32,46.32,0,0,0,6.63-5.94l1.13,1a48.29,48.29,0,0,1-6.83,6.13c-5.12,4-10,7.82-12.57,17.56s-.29,15.38,2.12,21.4,4.88,12.19,2.15,22.4A34.86,34.86,0,0,1,120.72,111.69Z"/><path class="cls-2" d="M158.51,134.45l-1-1.11a49.37,49.37,0,0,0,5.62-6.35c3.43-4.37,7-8.89,14.41-11.79l.54,1.39c-7.05,2.76-10.32,6.92-13.77,11.33A49.85,49.85,0,0,1,158.51,134.45Z"/><path class="cls-2" d="M138.23,132.8l-.51-1.41a33,33,0,0,0,5.52-2.57c8.71-5,11.11-10.67,13.66-16.64s5.16-12.07,14.3-17.35A30.66,30.66,0,0,1,174,93.35l.65,1.35A27,27,0,0,0,172,96.12c-8.73,5-11.14,10.68-13.69,16.65s-5.15,12.07-14.28,17.34A34,34,0,0,1,138.23,132.8Z"/><path class="cls-2" d="M134.32,124.31l-.87-1.23a32.25,32.25,0,0,0,4.63-3.94c7.12-7.13,8-13.2,8.9-19.63s1.85-13,9.31-20.46a29.93,29.93,0,0,1,10.44-7l.56,1.4a28.3,28.3,0,0,0-9.93,6.64c-7.11,7.12-8,13.19-8.89,19.62s-1.86,13-9.32,20.47A34.58,34.58,0,0,1,134.32,124.31Z"/><path class="cls-2" d="M128.33,117.11l-1.14-1a32.09,32.09,0,0,0,3.48-4.94c5-8.71,4.29-14.8,3.51-21.24s-1.58-13,3.69-22.17S149.29,56,155.22,53.48l.64,1.36c-6,2.57-11.66,5-16.69,13.69s-4.29,14.79-3.5,21.24,1.57,13-3.7,22.16A33.77,33.77,0,0,1,128.33,117.11Z"/><path class="cls-2" d="M137.74,134.1a35.09,35.09,0,0,0-67.66,0l-1.45-.4a36.6,36.6,0,0,1,70.56,0Z"/><path class="cls-2" d="M105.27,239.17h-1.4a65.28,65.28,0,0,1-18.42-2.26,63.94,63.94,0,0,1-17.23-7.44c-10.35-6.56-16-14.56-19.77-19.85a97,97,0,0,1-8.58-14.93c-6-12.91-7.86-24-9.21-32.08a172.1,172.1,0,0,1-2.18-28.77,172,172,0,0,1,2.18-28.75C32,97,33.85,85.92,39.87,73a98,98,0,0,1,8.58-14.94c3.51-4.94,9.37-13.2,19.74-19.84a63.9,63.9,0,0,1,17.24-7.5,65.25,65.25,0,0,1,18.45-2.24,65.24,65.24,0,0,1,18.5,2.19,64.12,64.12,0,0,1,17.23,7.49c10.32,6.55,16,14.55,19.76,19.84A95.53,95.53,0,0,1,168,73c6,12.86,7.85,24,9.21,32.06a171,171,0,0,1,2.18,28.76,171,171,0,0,1-2.18,28.75c-1.36,8.12-3.22,19.23-9.21,32.08a94.89,94.89,0,0,1-8.59,14.93c-3.75,5.3-9.42,13.3-19.75,19.85a64,64,0,0,1-17.24,7.5A65.48,65.48,0,0,1,105.27,239.17Zm-1.4-1.51A63.57,63.57,0,0,0,122,235.45a62.39,62.39,0,0,0,16.83-7.32c10.08-6.39,15.64-14.25,19.33-19.45A93.4,93.4,0,0,0,166.6,194c5.9-12.67,7.75-23.66,9.09-31.69a169,169,0,0,0,2.16-28.51,170.17,170.17,0,0,0-2.16-28.52c-1.34-8-3.18-19-9.09-31.67a93.31,93.31,0,0,0-8.46-14.71c-3.69-5.2-9.26-13-19.33-19.44A62.48,62.48,0,0,0,122,32.14,63.48,63.48,0,0,0,103.9,30h0a63.56,63.56,0,0,0-18.05,2.19A62.26,62.26,0,0,0,69,39.51C58.88,46,53.34,53.78,49.67,59a96,96,0,0,0-8.44,14.7c-5.93,12.72-7.76,23.68-9.09,31.68A171,171,0,0,0,30,133.83a170.21,170.21,0,0,0,2.16,28.53c1.33,8,3.15,19,9.09,31.68a94.75,94.75,0,0,0,8.45,14.7c3.68,5.2,9.24,13,19.34,19.45a62.48,62.48,0,0,0,16.82,7.26A63.84,63.84,0,0,0,103.87,237.66Z"/><polygon class="cls-2" points="12.16 100.73 10.93 108.12 7.05 107.48 9.35 93.69 14.22 94.5 21.12 103.43 22.43 95.62 26.32 96.26 23.9 110.7 19.23 109.91 12.16 100.73"/><path class="cls-2" d="M18,78l12.19,3.25L28.7,86.68l-2.3-.51h0c1.62,1,2,2.34,1.47,4.46-.76,2.85-2.43,3.69-5.28,2.93l-8.18-2.2,1.45-5.45,7.56,2c1,.26,1.6.3,1.79-.46S25,85.77,22.7,85.16l-6.19-1.65Z"/><path class="cls-2" d="M30.69,79.59l-11.6-4.93,2.21-5.21,2.14.91h0C21.91,69.28,21.65,68,22.5,66c1.06-2.51,2.79-3,5.45-1.86l1.82.76-2,4.92-1.18-.49c-1.17-.5-1.59-.38-1.8.11s0,1.56,2.24,2.5l6,2.48Z"/><path class="cls-2" d="M35.26,59a12.53,12.53,0,0,0,4.37-3.91c.65-1,.6-1.36.3-1.5s-.47-.12-.86.34l-1.86,2.2c-1.8,2.07-3.82,2.72-5.78,1.36s-2.55-3.75.18-8A13.6,13.6,0,0,1,36.12,45L38.06,48a10,10,0,0,0-3.45,3.19c-.7,1-.6,1.37-.33,1.55s.48.1.86-.35l1.92-2.12C39,48,41,47.63,42.83,48.88c2.4,1.59,2.28,4.23-.16,7.91A15.6,15.6,0,0,1,37.21,62Z"/><path class="cls-2" d="M41.85,36.3c2.93-3.28,5.55-4.09,8.64-1.61l-3.24,3.6c-1.6-1.24-2.18-1-2.82-.34s-.81,1.5,1.51,3.6,3,2,3.74,1.13.79-1.37-.89-3l3.27-3.61c3.06,2.92,2.57,5.67-.46,9S45.53,49.17,42,46s-3.31-6.14-.11-9.68"/><path class="cls-2" d="M57,38.83l-9.81-14,4.64-3.23L55.8,27.2h0c-.63-1.79,0-3.11,1.76-4.36C60,21.15,61.79,21.58,63.48,24l5,6.94-4.64,3.22-4.47-6.41c-.58-.84-1-1.26-1.67-.81s-1,1.43.41,3.41l3.66,5.25Z"/><path class="cls-2" d="M67.44,16.74l-1.36-3.48,3.67-1.36,1.4,3.35Zm-.23,7.73c1.75,4.46,4.65,5.23,9.26,3.43s6.21-4.34,4.46-8.8-4.65-5.21-9.24-3.42S65.47,20,67.21,24.47M71.86,15,70.5,11.53l3.65-1.36,1.37,3.48Zm3.58,10.25c-.94.37-1.54,0-2.73-3s-1-3.62,0-4,1.54,0,2.73,3,1,3.63,0,4"/><path class="cls-2" d="M84.53,24.65,82.61,12.19l5.58-.86.35,2.29h0c.22-1.88,1.36-2.81,3.49-3.15,2.92-.45,4.35.73,4.8,3.65l1.37,8.42-5.59.87-1.19-7.73c-.15-1-.37-1.58-1.15-1.46s-1.5.87-1.13,3.24l1,6.33Z"/><path class="cls-2" d="M107.14,9.94c5.46.15,7.16,2.22,7,7.51v.1l-8.52-.24c0,2.23.42,2.89,1.66,2.94s1.58-.55,1.73-1.68l5,.13c-.52,3.13-3.12,4.46-7.28,4.35-4.84-.13-7.18-2-7-6.75s2.55-6.5,7.39-6.36m1.72,5.31c0-1.81-.44-2.38-1.51-2.41s-1.53.52-1.67,2.33Z"/><path class="cls-2" d="M115.32,23.1l3-12.28,5.45,1.37-.53,2.25h0c.92-1.65,2.29-2.09,4.43-1.59,2.87.7,3.75,2.34,3.06,5.2l-2,8.29L123.23,25l1.83-7.61c.25-1,.26-1.6-.5-1.79s-1.72.25-2.28,2.57l-1.5,6.23Z"/><polygon class="cls-2" points="134.57 28.62 142.99 13.67 154.33 20.07 152.4 23.49 146.16 19.97 144.77 22.44 150.74 25.81 148.82 29.23 142.83 25.86 139.67 31.5 134.57 28.62"/><path class="cls-2" d="M146.91,35.79l8.49-9.33,4.19,3.8L158,32h0c1.53-1.07,2.84-.9,4.45.56,2,1.83,1.93,3.64,0,5.83l-1.31,1.44-4-3.6.85-.94c.87-.95.89-1.36.49-1.73s-1.46-.49-3.08,1.28l-4.31,4.75Z"/><path class="cls-2" d="M171.84,43.47c3.3,4.38,2.72,7-1.49,10.17h0l-5.14-6.82c-1.73,1.37-2,2.13-1.26,3.13s1.37.88,2.39.31l3,4.09c-2.73,1.54-5.45.34-7.94-3-2.91-3.86-2.94-6.82.89-9.71s6.66-2.06,9.55,1.8m-3,4.62c1.37-1.15,1.58-1.83.93-2.73s-1.36-.87-2.85.15Z"/><path class="cls-2" d="M166.61,58.43,177.52,52l2.91,4.86L169.6,63.28Zm11.53-6.82,3.2-1.92,3,4.78-3.2,1.93Z"/><path class="cls-2" d="M170.58,64.78l15.59-7.16,2.36,5.15-6.23,2.86h0c1.86-.3,3.06.5,4,2.51,1.22,2.73.49,4.38-2.2,5.62l-7.74,3.56L174,72.18l7.1-3.26c.92-.43,1.37-.79,1.09-1.5s-1.25-1.22-3.42-.21l-5.84,2.73Z"/><path class="cls-2" d="M191.23,82.08c1.52,5.25,0,7.48-5,9h-.1l-2.37-8.19c-2.11.68-2.63,1.28-2.28,2.47s1,1.36,2.12,1.15l1.36,4.84c-3.12.46-5.19-1.62-6.35-5.62-1.37-4.65-.32-7.42,4.29-8.76s7,.45,8.31,5.12m-4.48,3.23c1.74-.57,2.14-1.15,1.84-2.18s-1-1.37-2.72-.87Z"/><path class="cls-2" d="M181,94.23l12.39-2.4,1.07,5.55L182.09,99.8Zm13.18-2.61,3.67-.72,1.07,5.55-3.68.76Z"/><path class="cls-2" d="M191.79,99.8l3.09-.46.25,1.6,4.48-.69.85,5.59-4.49.69.36,2.4-3.08.46-.37-2.4-5.59.86c-.43,0-.67.27-.56,1l.23,1.51-3.1.46-.61-4c-.37-2.47.15-4.09,2.8-4.52l6-.9Z"/><polygon class="cls-2" points="9.53 159.97 22.88 157.76 23.64 162.4 18 163.32 24.12 165.22 24.97 170.33 17.78 167.77 11.6 172.54 10.73 167.28 15.75 163.71 10.29 164.61 9.53 159.97"/><path class="cls-2" d="M25.4,173l1.17,4.56-8.18,2.1c-1.73.45-2.22.95-1.87,2.33s1,1.58,2.73,1.14L27.43,181l1.19,4.54-8.29,2.15c-3.74,1-5.58-.9-6.64-5s-.36-6.62,3.38-7.58Z"/><path class="cls-2" d="M17.4,194.34,29.85,189l2.89,6.82c1.23,2.85,1.25,5-1.3,6a3.16,3.16,0,0,1-4.28-1.31l-.07-.14h0c.43,1.64-.24,2.62-1.88,3.54l-1.1.61a12.28,12.28,0,0,0-1.65,1.12l-.14.07-1.84-4.31a14,14,0,0,1,1.8-1.13l1.1-.63c1.19-.68,1.64-1.2,1.2-2.22l-.42-1-4.91,2.1Zm9.22,1.09L27.3,197a1.1,1.1,0,0,0,1.3.83,1.17,1.17,0,0,0,.38-.17,1.09,1.09,0,0,0,.82-1.3,1,1,0,0,0-.16-.36L29,194.43Z"/><path class="cls-2" d="M37.42,218.13c-4.09,2.55-7,2-9.55-2.1s-1.76-6.82,2.37-9.42,7-2,9.55,2.1,1.76,6.82-2.37,9.42m0-8c-.82-1.37-2-1-4.52.64s-3.41,2.44-2.6,3.76,1.95.94,4.53-.64,3.4-2.44,2.59-3.76"/><path class="cls-2" d="M35,226.14l10.28-8.79L50,223c2,2.37,2.73,4.37.55,6.17a3.16,3.16,0,0,1-4.46,0L46,229h0c.89,1.44.55,2.57-.75,3.94l-.86.91a11,11,0,0,0-1.24,1.56l-.12.11L40,232.08a15.06,15.06,0,0,1,1.36-1.63l.86-.92c.93-1,1.2-1.62.48-2.48l-.69-.79-4.09,3.45Zm9.11-1.71,1.15,1.37a1.28,1.28,0,0,0,1.93-1.67L46,222.77Z"/><polygon class="cls-2" points="53.62 231.33 55.48 228.85 65.05 236 63.18 238.48 60.28 236.31 54.04 244.67 50.28 241.85 56.52 233.5 53.62 231.33"/><path class="cls-2" d="M72.8,240.06l4.45,1.57-2.73,7.93c-.58,1.71-.43,2.39.92,2.85s1.89,0,2.46-1.69l2.73-7.93,4.45,1.51-2.73,8.1c-1.24,3.66-3.82,4.09-7.8,2.73s-5.71-3.34-4.47-7Zm3.11.4.94-2.73,3,1-1,2.72Zm3.54,1.2,1-2.73,2.93,1-.94,2.72Z"/><path class="cls-2" d="M87.52,258.51,88.88,245l6.82.69c2.93.3,4.68,1.24,4.41,3.81a3,3,0,0,1-3,2.91H96.9c2,.51,3.06,1.57,2.84,3.75-.28,2.73-2.18,3.34-5.12,3ZM92.33,256l1.27.14c.78.08,1.36-.11,1.45-1.22s-.4-1.36-1.18-1.49l-1.26-.12Zm.55-5.39,1.05.11c.83.08,1.29-.15,1.36-1s-.33-1.15-1.16-1.24l-1-.1Z"/><polygon class="cls-2" points="104.66 259.68 104.06 246.16 114.21 245.69 114.34 248.8 108.81 249.05 108.9 251.04 114.19 250.79 114.33 253.9 109.04 254.15 109.15 256.37 114.83 256.11 114.97 259.22 104.66 259.68"/><path class="cls-2" d="M121.37,258.32l-3.45-13.09,7.13-1.87c3-.79,5.1-.52,5.81,2.18a3.17,3.17,0,0,1-1.93,4l-.16,0h0c1.69-.17,2.55.63,3.22,2.39l.46,1.19a10.43,10.43,0,0,0,.86,1.78v.17l-4.53,1.18a15.58,15.58,0,0,1-.87-2l-.45-1.17c-.49-1.27-.94-1.8-2-1.52l-1,.27,1.36,5.16Zm2.42-8.95,1.69-.45a1.28,1.28,0,1,0-.43-2.52.79.79,0,0,0-.22.06l-1.69.45Z"/><path class="cls-2" d="M145.39,250.06l-7.24-11.45,5.46-3.42c3.79-2.41,6.49-1.66,9,2.31s2,6.71-1.76,9.12Zm2.34-5,.62-.41c1.37-.88,1.86-1.69,0-4.54s-2.72-2.81-4.09-1.91l-.63.4Z"/><polygon class="cls-2" points="161.31 238.82 151.65 229.34 158.76 222.1 160.98 224.27 157.09 228.22 158.53 229.61 162.24 225.84 164.44 228 160.74 231.78 162.33 233.35 166.31 229.29 168.54 231.46 161.31 238.82"/><path class="cls-2" d="M171.94,227.17,161,219.25l4.3-6c1.83-2.52,3.62-3.63,5.87-2a3.14,3.14,0,0,1,1.09,4.31.86.86,0,0,1-.1.16h0c1.2-1.2,2.38-1.15,4-.21l1.09.62a12.25,12.25,0,0,0,1.8.84l.14.1-2.73,3.79a18,18,0,0,1-1.91-1l-1.09-.61c-1.2-.67-1.87-.79-2.52.11l-.61.86,4.32,3.12Zm-3.8-8.44,1-1.36a1.1,1.1,0,0,0,0-1.56,1.14,1.14,0,0,0-.31-.23,1.1,1.1,0,0,0-1.55,0,1.24,1.24,0,0,0-.23.32l-1,1.36Z"/><path class="cls-2" d="M184.56,207.77l-10.91-8.84,2.73-6,13.84,2.2-1.95,4.37-2.5-.46-1.36,3.23,2,1.53Zm-2.73-7.48.83-1.89-2-.38c-1-.21-1.8-.37-2.55-.55h0c.64.44,1.28.9,2.11,1.53Z"/><path class="cls-2" d="M189.8,188.76l-3-.79a15.42,15.42,0,0,0-6.88-5l1.1-4.26a14.37,14.37,0,0,1,6.82,5.46l.78-2.95-4.2-1.09,1.11-4.32,4.2,1.1.49-1.85,3,.79-.47,1.84,2.42.64L194,182.66,191.6,182Z"/><path class="cls-2" d="M183.74,163.79c.72-4.38,3.12-5.89,7.92-5.09s6.56,3,5.83,7.39-3.13,5.91-7.93,5.1-6.56-3-5.82-7.4m7.11-.22c-3.7-.61-4.2-.25-4.37.68s.21,1.45,3.9,2.07,4.2.24,4.35-.69-.19-1.45-3.88-2.06"/><path class="cls-2" d="M195,133.9a2.91,2.91,0,1,1-2.91-2.91A2.9,2.9,0,0,1,195,133.9v0"/><path class="cls-2" d="M18.35,133.9a2.91,2.91,0,1,1-2.9-2.91h0a2.89,2.89,0,0,1,2.89,2.89v0"/></g></svg>